<svg xmlns="http://www.w3.org/2000/svg" viewBox="0 0 880 240" fill="none">
  <defs>
    <linearGradient id="bg" x1="0" y1="0" x2="880" y2="240" gradientUnits="userSpaceOnUse">
      <stop offset="0%" stop-color="#0c1222"/>
      <stop offset="100%" stop-color="#1a2740"/>
    </linearGradient>
    <linearGradient id="accent" x1="0" y1="0" x2="200" y2="0" gradientUnits="userSpaceOnUse">
      <stop offset="0%" stop-color="#f59e0b"/>
      <stop offset="100%" stop-color="#f97316"/>
    </linearGradient>
  </defs>

  <!-- Background -->
  <rect width="880" height="240" rx="12" fill="url(#bg)"/>

  <!-- Subtle dot grid -->
  <g opacity="0.04">
    <circle cx="40" cy="40" r="1" fill="#fff"/><circle cx="80" cy="40" r="1" fill="#fff"/>
    <circle cx="120" cy="40" r="1" fill="#fff"/><circle cx="160" cy="40" r="1" fill="#fff"/>
    <circle cx="200" cy="40" r="1" fill="#fff"/><circle cx="240" cy="40" r="1" fill="#fff"/>
    <circle cx="280" cy="40" r="1" fill="#fff"/><circle cx="320" cy="40" r="1" fill="#fff"/>
    <circle cx="360" cy="40" r="1" fill="#fff"/><circle cx="400" cy="40" r="1" fill="#fff"/>
    <circle cx="440" cy="40" r="1" fill="#fff"/><circle cx="480" cy="40" r="1" fill="#fff"/>
    <circle cx="520" cy="40" r="1" fill="#fff"/><circle cx="560" cy="40" r="1" fill="#fff"/>
    <circle cx="600" cy="40" r="1" fill="#fff"/><circle cx="640" cy="40" r="1" fill="#fff"/>
    <circle cx="680" cy="40" r="1" fill="#fff"/><circle cx="720" cy="40" r="1" fill="#fff"/>
    <circle cx="760" cy="40" r="1" fill="#fff"/><circle cx="800" cy="40" r="1" fill="#fff"/>
    <circle cx="840" cy="40" r="1" fill="#fff"/>
    <circle cx="40" cy="80" r="1" fill="#fff"/><circle cx="80" cy="80" r="1" fill="#fff"/>
    <circle cx="120" cy="80" r="1" fill="#fff"/><circle cx="160" cy="80" r="1" fill="#fff"/>
    <circle cx="200" cy="80" r="1" fill="#fff"/><circle cx="240" cy="80" r="1" fill="#fff"/>
    <circle cx="280" cy="80" r="1" fill="#fff"/><circle cx="320" cy="80" r="1" fill="#fff"/>
    <circle cx="360" cy="80" r="1" fill="#fff"/><circle cx="400" cy="80" r="1" fill="#fff"/>
    <circle cx="440" cy="80" r="1" fill="#fff"/><circle cx="480" cy="80" r="1" fill="#fff"/>
    <circle cx="520" cy="80" r="1" fill="#fff"/><circle cx="560" cy="80" r="1" fill="#fff"/>
    <circle cx="600" cy="80" r="1" fill="#fff"/><circle cx="640" cy="80" r="1" fill="#fff"/>
    <circle cx="680" cy="80" r="1" fill="#fff"/><circle cx="720" cy="80" r="1" fill="#fff"/>
    <circle cx="760" cy="80" r="1" fill="#fff"/><circle cx="800" cy="80" r="1" fill="#fff"/>
    <circle cx="840" cy="80" r="1" fill="#fff"/>
    <circle cx="40" cy="120" r="1" fill="#fff"/><circle cx="80" cy="120" r="1" fill="#fff"/>
    <circle cx="120" cy="120" r="1" fill="#fff"/><circle cx="160" cy="120" r="1" fill="#fff"/>
    <circle cx="200" cy="120" r="1" fill="#fff"/><circle cx="240" cy="120" r="1" fill="#fff"/>
    <circle cx="280" cy="120" r="1" fill="#fff"/><circle cx="320" cy="120" r="1" fill="#fff"/>
    <circle cx="360" cy="120" r="1" fill="#fff"/><circle cx="400" cy="120" r="1" fill="#fff"/>
    <circle cx="440" cy="120" r="1" fill="#fff"/><circle cx="480" cy="120" r="1" fill="#fff"/>
    <circle cx="520" cy="120" r="1" fill="#fff"/><circle cx="560" cy="120" r="1" fill="#fff"/>
    <circle cx="600" cy="120" r="1" fill="#fff"/><circle cx="640" cy="120" r="1" fill="#fff"/>
    <circle cx="680" cy="120" r="1" fill="#fff"/><circle cx="720" cy="120" r="1" fill="#fff"/>
    <circle cx="760" cy="120" r="1" fill="#fff"/><circle cx="800" cy="120" r="1" fill="#fff"/>
    <circle cx="840" cy="120" r="1" fill="#fff"/>
    <circle cx="40" cy="160" r="1" fill="#fff"/><circle cx="80" cy="160" r="1" fill="#fff"/>
    <circle cx="120" cy="160" r="1" fill="#fff"/><circle cx="160" cy="160" r="1" fill="#fff"/>
    <circle cx="200" cy="160" r="1" fill="#fff"/><circle cx="240" cy="160" r="1" fill="#fff"/>
    <circle cx="280" cy="160" r="1" fill="#fff"/><circle cx="320" cy="160" r="1" fill="#fff"/>
    <circle cx="360" cy="160" r="1" fill="#fff"/><circle cx="400" cy="160" r="1" fill="#fff"/>
    <circle cx="440" cy="160" r="1" fill="#fff"/><circle cx="480" cy="160" r="1" fill="#fff"/>
    <circle cx="520" cy="160" r="1" fill="#fff"/><circle cx="560" cy="160" r="1" fill="#fff"/>
    <circle cx="600" cy="160" r="1" fill="#fff"/><circle cx="640" cy="160" r="1" fill="#fff"/>
    <circle cx="680" cy="160" r="1" fill="#fff"/><circle cx="720" cy="160" r="1" fill="#fff"/>
    <circle cx="760" cy="160" r="1" fill="#fff"/><circle cx="800" cy="160" r="1" fill="#fff"/>
    <circle cx="840" cy="160" r="1" fill="#fff"/>
    <circle cx="40" cy="200" r="1" fill="#fff"/><circle cx="80" cy="200" r="1" fill="#fff"/>
    <circle cx="120" cy="200" r="1" fill="#fff"/><circle cx="160" cy="200" r="1" fill="#fff"/>
    <circle cx="200" cy="200" r="1" fill="#fff"/><circle cx="240" cy="200" r="1" fill="#fff"/>
    <circle cx="280" cy="200" r="1" fill="#fff"/><circle cx="320" cy="200" r="1" fill="#fff"/>
    <circle cx="360" cy="200" r="1" fill="#fff"/><circle cx="400" cy="200" r="1" fill="#fff"/>
    <circle cx="440" cy="200" r="1" fill="#fff"/><circle cx="480" cy="200" r="1" fill="#fff"/>
    <circle cx="520" cy="200" r="1" fill="#fff"/><circle cx="560" cy="200" r="1" fill="#fff"/>
    <circle cx="600" cy="200" r="1" fill="#fff"/><circle cx="640" cy="200" r="1" fill="#fff"/>
    <circle cx="680" cy="200" r="1" fill="#fff"/><circle cx="720" cy="200" r="1" fill="#fff"/>
    <circle cx="760" cy="200" r="1" fill="#fff"/><circle cx="800" cy="200" r="1" fill="#fff"/>
    <circle cx="840" cy="200" r="1" fill="#fff"/>
  </g>

  <!-- Paper/radar icon -->
  <g transform="translate(100, 80)">
    <!-- Stylized paper stack -->
    <rect x="0" y="8" width="48" height="62" rx="4" fill="#1e3a5f" stroke="#3b82f6" stroke-width="1.5"/>
    <rect x="-4" y="4" width="48" height="62" rx="4" fill="#1e3a5f" stroke="#3b82f6" stroke-width="1.5"/>
    <rect x="-8" y="0" width="48" height="62" rx="4" fill="#0f2340" stroke="#3b82f6" stroke-width="1.5"/>
    <!-- Lines on paper -->
    <line x1="0" y1="16" x2="28" y2="16" stroke="#3b82f6" stroke-width="1.5" opacity="0.6"/>
    <line x1="0" y1="24" x2="22" y2="24" stroke="#3b82f6" stroke-width="1.5" opacity="0.4"/>
    <line x1="0" y1="32" x2="32" y2="32" stroke="#3b82f6" stroke-width="1.5" opacity="0.3"/>
    <line x1="0" y1="40" x2="18" y2="40" stroke="#3b82f6" stroke-width="1.5" opacity="0.2"/>
    <!-- Pulse/signal -->
    <circle cx="52" cy="20" r="8" fill="none" stroke="#f59e0b" stroke-width="1.5" opacity="0.6"/>
    <circle cx="52" cy="20" r="16" fill="none" stroke="#f59e0b" stroke-width="1" opacity="0.3"/>
    <circle cx="52" cy="20" r="24" fill="none" stroke="#f59e0b" stroke-width="0.8" opacity="0.15"/>
  </g>

  <!-- Title -->
  <text x="440" y="92" text-anchor="middle"
        font-family="'Inter', 'SF Pro Display', -apple-system, 'Segoe UI', sans-serif"
        font-size="42" font-weight="700" fill="#f8fafc" letter-spacing="-0.5">
    Research Intel
  </text>

  <!-- Tagline -->
  <text x="440" y="126" text-anchor="middle"
        font-family="'Inter', 'SF Pro Text', -apple-system, 'Segoe UI', sans-serif"
        font-size="17" fill="#94a3b8">
    Self-hosted daily paper intelligence for researchers
  </text>

  <!-- Accent line -->
  <rect x="365" y="144" width="150" height="2.5" rx="1.25" fill="url(#accent)"/>

  <!-- Feature pills -->
  <g transform="translate(440, 175)" text-anchor="middle"
     font-family="'Inter', 'SF Pro Text', -apple-system, 'Segoe UI', sans-serif" font-size="12">
    <rect x="-218" y="-12" width="90" height="24" rx="12" fill="#1e293b" stroke="#334155" stroke-width="1"/>
    <text x="-173" y="4" fill="#cbd5e1">PDF-First</text>

    <rect x="-112" y="-12" width="100" height="24" rx="12" fill="#1e293b" stroke="#334155" stroke-width="1"/>
    <text x="-62" y="4" fill="#cbd5e1">arXiv + OR</text>

    <rect x="4" y="-12" width="88" height="24" rx="12" fill="#1e293b" stroke="#334155" stroke-width="1"/>
    <text x="48" y="4" fill="#cbd5e1">Telegram</text>

    <rect x="108" y="-12" width="110" height="24" rx="12" fill="#1e293b" stroke="#334155" stroke-width="1"/>
    <text x="163" y="4" fill="#cbd5e1">Self-Hosted</text>
  </g>

  <!-- Decorative right side network nodes -->
  <g opacity="0.08">
    <circle cx="750" cy="60" r="3" fill="#3b82f6"/>
    <circle cx="790" cy="90" r="2" fill="#3b82f6"/>
    <circle cx="820" cy="50" r="2.5" fill="#3b82f6"/>
    <circle cx="770" cy="140" r="2" fill="#f59e0b"/>
    <circle cx="810" cy="170" r="3" fill="#f59e0b"/>
    <circle cx="840" cy="120" r="1.5" fill="#3b82f6"/>
    <line x1="750" y1="60" x2="790" y2="90" stroke="#3b82f6" stroke-width="0.8"/>
    <line x1="790" y1="90" x2="820" y2="50" stroke="#3b82f6" stroke-width="0.8"/>
    <line x1="790" y1="90" x2="770" y2="140" stroke="#3b82f6" stroke-width="0.8"/>
    <line x1="770" y1="140" x2="810" y2="170" stroke="#f59e0b" stroke-width="0.8"/>
    <line x1="820" y1="50" x2="840" y2="120" stroke="#3b82f6" stroke-width="0.8"/>
  </g>
</svg>
